<mxfile host="app.diagrams.net" modified="2023-05-13T17:32:31.333Z" agent="Mozilla/5.0 (X11; Linux x86_64) AppleWebKit/537.36 (KHTML, like Gecko) Chrome/113.0.0.0 Safari/537.36" etag="5kSOXpEQFb8JbFrRSb2u" version="21.3.0" type="github">
  <diagram name="第 1 页" id="EcDCA8JuO3WvVQXq8Ct3">
    <mxGraphModel dx="683" dy="384" grid="1" gridSize="10" guides="1" tooltips="1" connect="1" arrows="1" fold="1" page="1" pageScale="1" pageWidth="583" pageHeight="827" math="0" shadow="0">
      <root>
        <mxCell id="0" />
        <mxCell id="1" parent="0" />
        <mxCell id="YpP6A7r4p4-_vK5lrl9E-9" value="" style="group" vertex="1" connectable="0" parent="1">
          <mxGeometry x="30" y="10" width="80" height="80" as="geometry" />
        </mxCell>
        <mxCell id="YpP6A7r4p4-_vK5lrl9E-1" value="" style="whiteSpace=wrap;html=1;aspect=fixed;fillColor=#ffcccc;fillStyle=auto;strokeColor=#36393d;" vertex="1" parent="YpP6A7r4p4-_vK5lrl9E-9">
          <mxGeometry width="80" height="80" as="geometry" />
        </mxCell>
        <mxCell id="YpP6A7r4p4-_vK5lrl9E-5" value="" style="endArrow=none;html=1;rounded=0;exitX=0;exitY=0.25;exitDx=0;exitDy=0;entryX=1;entryY=0.25;entryDx=0;entryDy=0;" edge="1" parent="YpP6A7r4p4-_vK5lrl9E-9" source="YpP6A7r4p4-_vK5lrl9E-1" target="YpP6A7r4p4-_vK5lrl9E-1">
          <mxGeometry width="50" height="50" relative="1" as="geometry">
            <mxPoint x="70" y="90" as="sourcePoint" />
            <mxPoint x="120" y="40" as="targetPoint" />
          </mxGeometry>
        </mxCell>
        <mxCell id="YpP6A7r4p4-_vK5lrl9E-6" value="" style="endArrow=none;html=1;rounded=0;exitX=0;exitY=0.75;exitDx=0;exitDy=0;entryX=1;entryY=0.75;entryDx=0;entryDy=0;" edge="1" parent="YpP6A7r4p4-_vK5lrl9E-9" source="YpP6A7r4p4-_vK5lrl9E-1" target="YpP6A7r4p4-_vK5lrl9E-1">
          <mxGeometry width="50" height="50" relative="1" as="geometry">
            <mxPoint x="10" y="30" as="sourcePoint" />
            <mxPoint x="90" y="30" as="targetPoint" />
          </mxGeometry>
        </mxCell>
        <mxCell id="YpP6A7r4p4-_vK5lrl9E-7" value="" style="endArrow=none;html=1;rounded=0;exitX=0.25;exitY=0;exitDx=0;exitDy=0;entryX=0.25;entryY=1;entryDx=0;entryDy=0;" edge="1" parent="YpP6A7r4p4-_vK5lrl9E-9" source="YpP6A7r4p4-_vK5lrl9E-1" target="YpP6A7r4p4-_vK5lrl9E-1">
          <mxGeometry width="50" height="50" relative="1" as="geometry">
            <mxPoint x="10" y="70" as="sourcePoint" />
            <mxPoint x="90" y="70" as="targetPoint" />
          </mxGeometry>
        </mxCell>
        <mxCell id="YpP6A7r4p4-_vK5lrl9E-8" value="" style="endArrow=none;html=1;rounded=0;exitX=0.75;exitY=1;exitDx=0;exitDy=0;entryX=0.75;entryY=0;entryDx=0;entryDy=0;" edge="1" parent="YpP6A7r4p4-_vK5lrl9E-9" source="YpP6A7r4p4-_vK5lrl9E-1" target="YpP6A7r4p4-_vK5lrl9E-1">
          <mxGeometry width="50" height="50" relative="1" as="geometry">
            <mxPoint x="20" y="80" as="sourcePoint" />
            <mxPoint x="100" y="80" as="targetPoint" />
          </mxGeometry>
        </mxCell>
        <mxCell id="YpP6A7r4p4-_vK5lrl9E-41" value="" style="group;fillColor=default;container=0;" vertex="1" connectable="0" parent="1">
          <mxGeometry x="150" y="10" width="120" height="100" as="geometry" />
        </mxCell>
        <mxCell id="YpP6A7r4p4-_vK5lrl9E-42" value="" style="endArrow=classic;html=1;rounded=0;entryX=0;entryY=0;entryDx=0;entryDy=0;" edge="1" parent="1" target="YpP6A7r4p4-_vK5lrl9E-38">
          <mxGeometry width="50" height="50" relative="1" as="geometry">
            <mxPoint x="120" y="50" as="sourcePoint" />
            <mxPoint x="180" y="40" as="targetPoint" />
          </mxGeometry>
        </mxCell>
        <mxCell id="YpP6A7r4p4-_vK5lrl9E-43" value="窗口分隔&lt;br&gt;&lt;font face=&quot;Times New Roman&quot;&gt;Windows Partition&lt;/font&gt;" style="text;html=1;strokeColor=none;fillColor=none;align=center;verticalAlign=middle;whiteSpace=wrap;rounded=0;fontFamily=宋体;fontSize=13;" vertex="1" parent="1">
          <mxGeometry x="10" y="90" width="120" height="30" as="geometry" />
        </mxCell>
        <mxCell id="YpP6A7r4p4-_vK5lrl9E-44" value="循环位移&lt;br&gt;&lt;font face=&quot;Times New Roman&quot;&gt;Cyclic Shift&lt;/font&gt;" style="text;html=1;strokeColor=none;fillColor=none;align=center;verticalAlign=middle;whiteSpace=wrap;rounded=0;fontFamily=宋体;fontSize=13;" vertex="1" parent="1">
          <mxGeometry x="165" y="110" width="90" height="30" as="geometry" />
        </mxCell>
        <mxCell id="YpP6A7r4p4-_vK5lrl9E-56" style="edgeStyle=orthogonalEdgeStyle;rounded=0;orthogonalLoop=1;jettySize=auto;html=1;exitX=1;exitY=0.5;exitDx=0;exitDy=0;entryX=0;entryY=0.5;entryDx=0;entryDy=0;" edge="1" parent="1" source="YpP6A7r4p4-_vK5lrl9E-45" target="YpP6A7r4p4-_vK5lrl9E-54">
          <mxGeometry relative="1" as="geometry" />
        </mxCell>
        <mxCell id="YpP6A7r4p4-_vK5lrl9E-45" value="" style="whiteSpace=wrap;html=1;aspect=fixed;fillStyle=auto;fillColor=#E6EAED;strokeColor=#23445d;" vertex="1" parent="1">
          <mxGeometry x="300" y="10" width="40" height="40" as="geometry" />
        </mxCell>
        <mxCell id="YpP6A7r4p4-_vK5lrl9E-47" value="" style="rounded=0;whiteSpace=wrap;html=1;fillColor=#FAD9D5;" vertex="1" parent="1">
          <mxGeometry x="320" y="100" width="20" height="20" as="geometry" />
        </mxCell>
        <mxCell id="YpP6A7r4p4-_vK5lrl9E-48" value="" style="rounded=0;whiteSpace=wrap;html=1;fillColor=#B1DDF0;" vertex="1" parent="1">
          <mxGeometry x="300" y="100" width="20" height="20" as="geometry" />
        </mxCell>
        <mxCell id="YpP6A7r4p4-_vK5lrl9E-57" style="edgeStyle=orthogonalEdgeStyle;rounded=0;orthogonalLoop=1;jettySize=auto;html=1;exitX=1;exitY=1;exitDx=0;exitDy=0;entryX=0;entryY=0.5;entryDx=0;entryDy=0;" edge="1" parent="1" source="YpP6A7r4p4-_vK5lrl9E-49" target="YpP6A7r4p4-_vK5lrl9E-55">
          <mxGeometry relative="1" as="geometry" />
        </mxCell>
        <mxCell id="YpP6A7r4p4-_vK5lrl9E-49" value="" style="rounded=0;whiteSpace=wrap;html=1;fillColor=#FAD7AC;" vertex="1" parent="1">
          <mxGeometry x="320" y="80" width="20" height="20" as="geometry" />
        </mxCell>
        <mxCell id="YpP6A7r4p4-_vK5lrl9E-50" value="" style="rounded=0;whiteSpace=wrap;html=1;" vertex="1" parent="1">
          <mxGeometry x="300" y="80" width="20" height="20" as="geometry" />
        </mxCell>
        <mxCell id="YpP6A7r4p4-_vK5lrl9E-51" value="" style="group" vertex="1" connectable="0" parent="1">
          <mxGeometry x="160" y="10" width="110" height="100" as="geometry" />
        </mxCell>
        <mxCell id="YpP6A7r4p4-_vK5lrl9E-11" value="" style="whiteSpace=wrap;html=1;aspect=fixed;fillStyle=auto;fillColor=#F5F7F7;strokeColor=#23445d;" vertex="1" parent="YpP6A7r4p4-_vK5lrl9E-51">
          <mxGeometry width="80" height="80" as="geometry" />
        </mxCell>
        <mxCell id="YpP6A7r4p4-_vK5lrl9E-16" value="" style="whiteSpace=wrap;html=1;aspect=fixed;fillStyle=auto;fillColor=#E6EAED;strokeColor=#23445d;" vertex="1" parent="YpP6A7r4p4-_vK5lrl9E-51">
          <mxGeometry x="20" y="20" width="60" height="60" as="geometry" />
        </mxCell>
        <mxCell id="YpP6A7r4p4-_vK5lrl9E-28" value="" style="rounded=0;whiteSpace=wrap;html=1;fillColor=#fad9d5;strokeColor=#ae4132;" vertex="1" parent="YpP6A7r4p4-_vK5lrl9E-51">
          <mxGeometry x="80" y="80" width="20" height="20" as="geometry" />
        </mxCell>
        <mxCell id="YpP6A7r4p4-_vK5lrl9E-29" value="" style="rounded=0;whiteSpace=wrap;html=1;fillColor=#fad7ac;strokeColor=#b46504;" vertex="1" parent="YpP6A7r4p4-_vK5lrl9E-51">
          <mxGeometry x="80" y="20" width="20" height="60" as="geometry" />
        </mxCell>
        <mxCell id="YpP6A7r4p4-_vK5lrl9E-31" value="" style="endArrow=none;html=1;rounded=0;exitX=0;exitY=0.75;exitDx=0;exitDy=0;entryX=1;entryY=0.75;entryDx=0;entryDy=0;" edge="1" parent="YpP6A7r4p4-_vK5lrl9E-51" source="YpP6A7r4p4-_vK5lrl9E-16" target="YpP6A7r4p4-_vK5lrl9E-29">
          <mxGeometry width="50" height="50" relative="1" as="geometry">
            <mxPoint x="110" y="110" as="sourcePoint" />
            <mxPoint x="160" y="60" as="targetPoint" />
          </mxGeometry>
        </mxCell>
        <mxCell id="YpP6A7r4p4-_vK5lrl9E-32" value="" style="endArrow=none;html=1;rounded=0;exitX=0.672;exitY=0.028;exitDx=0;exitDy=0;exitPerimeter=0;" edge="1" parent="YpP6A7r4p4-_vK5lrl9E-51" source="YpP6A7r4p4-_vK5lrl9E-16">
          <mxGeometry width="50" height="50" relative="1" as="geometry">
            <mxPoint x="150" y="110" as="sourcePoint" />
            <mxPoint x="60" y="80" as="targetPoint" />
          </mxGeometry>
        </mxCell>
        <mxCell id="YpP6A7r4p4-_vK5lrl9E-24" value="A" style="text;html=1;strokeColor=none;fillColor=none;align=center;verticalAlign=middle;whiteSpace=wrap;rounded=0;fontSize=13;fontFamily=Times New Roman;" vertex="1" parent="YpP6A7r4p4-_vK5lrl9E-51">
          <mxGeometry x="70" y="80" width="40" height="20" as="geometry" />
        </mxCell>
        <mxCell id="YpP6A7r4p4-_vK5lrl9E-25" value="B" style="text;html=1;strokeColor=none;fillColor=none;align=center;verticalAlign=middle;whiteSpace=wrap;rounded=0;fontSize=13;fontFamily=Times New Roman;" vertex="1" parent="YpP6A7r4p4-_vK5lrl9E-51">
          <mxGeometry x="70" y="40" width="40" height="20" as="geometry" />
        </mxCell>
        <mxCell id="YpP6A7r4p4-_vK5lrl9E-34" value="" style="rounded=0;whiteSpace=wrap;html=1;fillColor=#b1ddf0;strokeColor=#10739e;" vertex="1" parent="YpP6A7r4p4-_vK5lrl9E-51">
          <mxGeometry x="20" y="80" width="60" height="20" as="geometry" />
        </mxCell>
        <mxCell id="YpP6A7r4p4-_vK5lrl9E-26" value="C" style="text;html=1;strokeColor=none;fillColor=none;align=center;verticalAlign=middle;whiteSpace=wrap;rounded=0;fontSize=13;fontFamily=Times New Roman;" vertex="1" parent="YpP6A7r4p4-_vK5lrl9E-51">
          <mxGeometry x="20" y="80" width="40" height="20" as="geometry" />
        </mxCell>
        <mxCell id="YpP6A7r4p4-_vK5lrl9E-35" value="" style="endArrow=none;dashed=1;html=1;rounded=0;entryX=1;entryY=0;entryDx=0;entryDy=0;" edge="1" parent="YpP6A7r4p4-_vK5lrl9E-51" target="YpP6A7r4p4-_vK5lrl9E-26">
          <mxGeometry width="50" height="50" relative="1" as="geometry">
            <mxPoint x="60" y="100" as="sourcePoint" />
            <mxPoint x="110" y="140" as="targetPoint" />
          </mxGeometry>
        </mxCell>
        <mxCell id="YpP6A7r4p4-_vK5lrl9E-36" value="" style="endArrow=none;dashed=1;html=1;rounded=0;exitX=0;exitY=0;exitDx=0;exitDy=0;entryX=0;entryY=0.25;entryDx=0;entryDy=0;" edge="1" parent="YpP6A7r4p4-_vK5lrl9E-51" source="YpP6A7r4p4-_vK5lrl9E-16" target="YpP6A7r4p4-_vK5lrl9E-11">
          <mxGeometry width="50" height="50" relative="1" as="geometry">
            <mxPoint x="110" y="120" as="sourcePoint" />
            <mxPoint x="160" y="70" as="targetPoint" />
          </mxGeometry>
        </mxCell>
        <mxCell id="YpP6A7r4p4-_vK5lrl9E-37" value="" style="endArrow=none;dashed=1;html=1;rounded=0;exitX=0.25;exitY=0;exitDx=0;exitDy=0;entryX=0;entryY=0;entryDx=0;entryDy=0;" edge="1" parent="YpP6A7r4p4-_vK5lrl9E-51" source="YpP6A7r4p4-_vK5lrl9E-11" target="YpP6A7r4p4-_vK5lrl9E-16">
          <mxGeometry width="50" height="50" relative="1" as="geometry">
            <mxPoint x="30" y="30" as="sourcePoint" />
            <mxPoint x="10" y="30" as="targetPoint" />
          </mxGeometry>
        </mxCell>
        <mxCell id="YpP6A7r4p4-_vK5lrl9E-39" value="C" style="text;html=1;strokeColor=none;fillColor=none;align=center;verticalAlign=middle;whiteSpace=wrap;rounded=0;fontSize=13;fontFamily=Times New Roman;" vertex="1" parent="YpP6A7r4p4-_vK5lrl9E-51">
          <mxGeometry x="30" width="40" height="20" as="geometry" />
        </mxCell>
        <mxCell id="YpP6A7r4p4-_vK5lrl9E-61" value="B" style="text;html=1;strokeColor=none;fillColor=none;align=center;verticalAlign=middle;whiteSpace=wrap;rounded=0;fontSize=13;fontFamily=Times New Roman;" vertex="1" parent="YpP6A7r4p4-_vK5lrl9E-51">
          <mxGeometry x="-10" y="40" width="40" height="20" as="geometry" />
        </mxCell>
        <mxCell id="YpP6A7r4p4-_vK5lrl9E-62" value="A" style="text;html=1;strokeColor=none;fillColor=none;align=center;verticalAlign=middle;whiteSpace=wrap;rounded=0;fontSize=13;fontFamily=Times New Roman;" vertex="1" parent="YpP6A7r4p4-_vK5lrl9E-51">
          <mxGeometry x="-10" width="40" height="20" as="geometry" />
        </mxCell>
        <mxCell id="YpP6A7r4p4-_vK5lrl9E-54" value="&lt;font face=&quot;Times New Roman&quot;&gt;masked&lt;br&gt;MSA&lt;/font&gt;" style="rounded=0;whiteSpace=wrap;html=1;fontSize=13;fontFamily=宋体;" vertex="1" parent="1">
          <mxGeometry x="360" y="10" width="50" height="40" as="geometry" />
        </mxCell>
        <mxCell id="YpP6A7r4p4-_vK5lrl9E-55" value="&lt;font face=&quot;Times New Roman&quot;&gt;masked&lt;br&gt;MSA&lt;/font&gt;" style="rounded=0;whiteSpace=wrap;html=1;fontSize=13;fontFamily=宋体;" vertex="1" parent="1">
          <mxGeometry x="360" y="80" width="50" height="40" as="geometry" />
        </mxCell>
        <mxCell id="YpP6A7r4p4-_vK5lrl9E-58" value="..." style="text;html=1;strokeColor=none;fillColor=none;align=center;verticalAlign=middle;whiteSpace=wrap;rounded=0;rotation=-90;fontSize=13;fontFamily=Times New Roman;" vertex="1" parent="1">
          <mxGeometry x="300" y="55" width="40" height="15" as="geometry" />
        </mxCell>
        <mxCell id="YpP6A7r4p4-_vK5lrl9E-59" value="" style="shape=curlyBracket;whiteSpace=wrap;html=1;rounded=1;labelPosition=left;verticalLabelPosition=middle;align=right;verticalAlign=middle;" vertex="1" parent="1">
          <mxGeometry x="270" y="2.5" width="20" height="120" as="geometry" />
        </mxCell>
        <mxCell id="YpP6A7r4p4-_vK5lrl9E-60" value="" style="shape=curlyBracket;whiteSpace=wrap;html=1;rounded=1;flipH=1;labelPosition=right;verticalLabelPosition=middle;align=left;verticalAlign=middle;" vertex="1" parent="1">
          <mxGeometry x="420" y="3" width="20" height="120" as="geometry" />
        </mxCell>
        <mxCell id="YpP6A7r4p4-_vK5lrl9E-63" value="" style="group" vertex="1" connectable="0" parent="1">
          <mxGeometry x="150" y="10" width="40" height="60" as="geometry" />
        </mxCell>
        <mxCell id="YpP6A7r4p4-_vK5lrl9E-38" value="B" style="text;html=1;strokeColor=none;fillColor=none;align=center;verticalAlign=middle;whiteSpace=wrap;rounded=0;fontSize=13;fontFamily=Times New Roman;" vertex="1" parent="YpP6A7r4p4-_vK5lrl9E-63">
          <mxGeometry y="40" width="40" height="20" as="geometry" />
        </mxCell>
        <mxCell id="YpP6A7r4p4-_vK5lrl9E-40" value="A" style="text;html=1;strokeColor=none;fillColor=none;align=center;verticalAlign=middle;whiteSpace=wrap;rounded=0;fontSize=13;fontFamily=Times New Roman;" vertex="1" parent="YpP6A7r4p4-_vK5lrl9E-63">
          <mxGeometry width="40" height="20" as="geometry" />
        </mxCell>
        <mxCell id="YpP6A7r4p4-_vK5lrl9E-65" value="" style="whiteSpace=wrap;html=1;aspect=fixed;fillStyle=auto;fillColor=#F5F7F7;strokeColor=#23445d;rotation=-180;" vertex="1" parent="1">
          <mxGeometry x="480" y="30" width="80" height="80" as="geometry" />
        </mxCell>
        <mxCell id="YpP6A7r4p4-_vK5lrl9E-66" value="" style="whiteSpace=wrap;html=1;aspect=fixed;fillStyle=auto;fillColor=#E6EAED;strokeColor=#23445d;rotation=-180;" vertex="1" parent="1">
          <mxGeometry x="480" y="30" width="60" height="60" as="geometry" />
        </mxCell>
        <mxCell id="YpP6A7r4p4-_vK5lrl9E-67" value="" style="rounded=0;whiteSpace=wrap;html=1;fillColor=#fad9d5;strokeColor=#ae4132;rotation=-180;" vertex="1" parent="1">
          <mxGeometry x="460" y="10" width="20" height="20" as="geometry" />
        </mxCell>
        <mxCell id="YpP6A7r4p4-_vK5lrl9E-68" value="" style="rounded=0;whiteSpace=wrap;html=1;fillColor=#fad7ac;strokeColor=#b46504;rotation=-180;" vertex="1" parent="1">
          <mxGeometry x="460" y="30" width="20" height="60" as="geometry" />
        </mxCell>
        <mxCell id="YpP6A7r4p4-_vK5lrl9E-69" value="" style="endArrow=none;html=1;rounded=0;exitX=0;exitY=0.75;exitDx=0;exitDy=0;entryX=1;entryY=0.75;entryDx=0;entryDy=0;" edge="1" parent="1" source="YpP6A7r4p4-_vK5lrl9E-66" target="YpP6A7r4p4-_vK5lrl9E-68">
          <mxGeometry width="50" height="50" relative="1" as="geometry">
            <mxPoint x="450" as="sourcePoint" />
            <mxPoint x="400" y="50" as="targetPoint" />
          </mxGeometry>
        </mxCell>
        <mxCell id="YpP6A7r4p4-_vK5lrl9E-70" value="" style="endArrow=none;html=1;rounded=0;exitX=0.672;exitY=0.028;exitDx=0;exitDy=0;exitPerimeter=0;" edge="1" parent="1" source="YpP6A7r4p4-_vK5lrl9E-66">
          <mxGeometry width="50" height="50" relative="1" as="geometry">
            <mxPoint x="410" as="sourcePoint" />
            <mxPoint x="500" y="30" as="targetPoint" />
          </mxGeometry>
        </mxCell>
        <mxCell id="YpP6A7r4p4-_vK5lrl9E-71" value="A" style="text;html=1;strokeColor=none;fillColor=none;align=center;verticalAlign=middle;whiteSpace=wrap;rounded=0;fontSize=13;fontFamily=Times New Roman;rotation=0;" vertex="1" parent="1">
          <mxGeometry x="450" y="10" width="40" height="20" as="geometry" />
        </mxCell>
        <mxCell id="YpP6A7r4p4-_vK5lrl9E-72" value="B" style="text;html=1;strokeColor=none;fillColor=none;align=center;verticalAlign=middle;whiteSpace=wrap;rounded=0;fontSize=13;fontFamily=Times New Roman;rotation=0;" vertex="1" parent="1">
          <mxGeometry x="450" y="50" width="40" height="20" as="geometry" />
        </mxCell>
        <mxCell id="YpP6A7r4p4-_vK5lrl9E-73" value="" style="rounded=0;whiteSpace=wrap;html=1;fillColor=#b1ddf0;strokeColor=#10739e;rotation=-180;" vertex="1" parent="1">
          <mxGeometry x="480" y="10" width="60" height="20" as="geometry" />
        </mxCell>
        <mxCell id="YpP6A7r4p4-_vK5lrl9E-74" value="C" style="text;html=1;strokeColor=none;fillColor=none;align=center;verticalAlign=middle;whiteSpace=wrap;rounded=0;fontSize=13;fontFamily=Times New Roman;rotation=0;" vertex="1" parent="1">
          <mxGeometry x="500" y="10" width="40" height="20" as="geometry" />
        </mxCell>
        <mxCell id="YpP6A7r4p4-_vK5lrl9E-75" value="" style="endArrow=none;dashed=1;html=1;rounded=0;entryX=1;entryY=0;entryDx=0;entryDy=0;" edge="1" parent="1" target="YpP6A7r4p4-_vK5lrl9E-74">
          <mxGeometry width="50" height="50" relative="1" as="geometry">
            <mxPoint x="500" y="10" as="sourcePoint" />
            <mxPoint x="450" y="-30" as="targetPoint" />
          </mxGeometry>
        </mxCell>
        <mxCell id="YpP6A7r4p4-_vK5lrl9E-76" value="" style="endArrow=none;dashed=1;html=1;rounded=0;exitX=0;exitY=0;exitDx=0;exitDy=0;entryX=0;entryY=0.25;entryDx=0;entryDy=0;" edge="1" parent="1" source="YpP6A7r4p4-_vK5lrl9E-66" target="YpP6A7r4p4-_vK5lrl9E-65">
          <mxGeometry width="50" height="50" relative="1" as="geometry">
            <mxPoint x="450" y="-10" as="sourcePoint" />
            <mxPoint x="400" y="40" as="targetPoint" />
          </mxGeometry>
        </mxCell>
        <mxCell id="YpP6A7r4p4-_vK5lrl9E-77" value="" style="endArrow=none;dashed=1;html=1;rounded=0;exitX=0.25;exitY=0;exitDx=0;exitDy=0;entryX=0;entryY=0;entryDx=0;entryDy=0;" edge="1" parent="1" source="YpP6A7r4p4-_vK5lrl9E-65" target="YpP6A7r4p4-_vK5lrl9E-66">
          <mxGeometry width="50" height="50" relative="1" as="geometry">
            <mxPoint x="530" y="80" as="sourcePoint" />
            <mxPoint x="550" y="80" as="targetPoint" />
          </mxGeometry>
        </mxCell>
        <mxCell id="YpP6A7r4p4-_vK5lrl9E-78" value="C" style="text;html=1;strokeColor=none;fillColor=none;align=center;verticalAlign=middle;whiteSpace=wrap;rounded=0;fontSize=13;fontFamily=Times New Roman;rotation=0;" vertex="1" parent="1">
          <mxGeometry x="490" y="90" width="40" height="20" as="geometry" />
        </mxCell>
        <mxCell id="YpP6A7r4p4-_vK5lrl9E-79" value="B" style="text;html=1;strokeColor=none;fillColor=none;align=center;verticalAlign=middle;whiteSpace=wrap;rounded=0;fontSize=13;fontFamily=Times New Roman;rotation=0;" vertex="1" parent="1">
          <mxGeometry x="530" y="50" width="40" height="20" as="geometry" />
        </mxCell>
        <mxCell id="YpP6A7r4p4-_vK5lrl9E-80" value="A" style="text;html=1;strokeColor=none;fillColor=none;align=center;verticalAlign=middle;whiteSpace=wrap;rounded=0;fontSize=13;fontFamily=Times New Roman;rotation=0;" vertex="1" parent="1">
          <mxGeometry x="530" y="90" width="40" height="20" as="geometry" />
        </mxCell>
        <mxCell id="YpP6A7r4p4-_vK5lrl9E-81" value="反向循环位移&lt;br&gt;&lt;font face=&quot;Times New Roman&quot;&gt;Reverse Cyclic Shift&lt;/font&gt;" style="text;html=1;strokeColor=none;fillColor=none;align=center;verticalAlign=middle;whiteSpace=wrap;rounded=0;fontFamily=宋体;fontSize=13;" vertex="1" parent="1">
          <mxGeometry x="450" y="110" width="110" height="30" as="geometry" />
        </mxCell>
      </root>
    </mxGraphModel>
  </diagram>
</mxfile>
